<svg xmlns="http://www.w3.org/2000/svg" width="230" height="38" viewBox="0 0 230 38" fill="none">
  <path d="M28.0162 5.01294C33.2474 8.94674 34.3075 16.361 30.3877 21.5782C26.4678 26.7953 19.0466 27.8276 13.8155 23.8938C11.1092 21.8641 10.5652 18.021 12.6019 15.3148C13.2087 14.5057 13.9829 13.8919 14.8338 13.4804C8.99587 16.1308 6.30359 22.9592 8.8215 28.8738C11.3743 34.8792 18.3282 37.6621 24.3544 35.1023C27.0886 33.9376 29.5716 32.0613 31.4897 29.5155C37.2928 21.7874 35.7443 10.823 28.0162 5.01294Z" fill="url(#paint0_linear)"/>
  <path d="M28.0163 5.01317C25.6449 3.22064 22.7782 2.01399 19.6117 1.63038C18.5724 1.50483 17.5471 1.46995 16.5427 1.52575C18.5445 2.19534 20.616 3.14391 22.2063 4.73417C27.3607 9.88857 26.9422 19.9742 21.1182 23.9359C19.9046 24.8287 18.3632 25.275 16.759 25.0798C15.7546 24.9542 14.8339 24.5985 14.0527 24.0614C19.2699 27.793 26.5237 26.7119 30.3878 21.5784C34.3146 16.3612 33.2475 8.94697 28.0163 5.01317Z" fill="url(#paint1_linear)"/>
  <path d="M8.82118 28.8738C6.35906 23.0847 8.88395 16.4097 14.4778 13.6477C16.6888 12.3295 19.8135 12.3574 22.7429 13.7175C21.1596 9.93012 17.6513 7.07742 13.2851 6.54733C6.81243 5.75918 0.918698 10.3835 0.130542 16.884C-0.232149 19.8344 0.151467 22.9173 1.39996 25.8537C5.18729 34.7466 15.4612 38.8826 24.3541 35.0953C18.3348 37.662 11.3809 34.8721 8.82118 28.8738Z" fill="url(#paint2_linear)"/>
  <path d="M111.499 9H89.8164V11.3877H111.499V9Z" fill="white"/>
  <path d="M92.6804 26.6123V20.0461H107.127V17.6584H94.0914C91.7278 17.6584 89.8164 19.5698 89.8164 21.9334V29H111.661V26.6123H92.6804Z" fill="white"/>
  <path d="M229.551 9H207.869V11.3877H229.551V9Z" fill="#FD203C"/>
  <path d="M210.733 26.6123V20.0461H225.18V17.6584H212.144C209.781 17.6584 207.869 19.5698 207.869 21.9334V29H229.714V26.6123H210.733Z" fill="#FD203C"/>
  <path d="M145.427 9H123.449V11.3877H145.427V9Z" fill="#FD203C"/>
  <path d="M140.766 17.6584H127.731C125.367 17.6584 123.456 19.5698 123.456 21.9334V29H126.32V20.0461H140.766V17.6584Z" fill="#FD203C"/>
  <path d="M159.295 9H156.431V29H159.295V9Z" fill="#FD203C"/>
  <path d="M195.002 13.9683V13.9562C195.002 11.2188 192.687 9.00598 189.497 9.00598H172.825V11.3937H188.785C190.986 11.3937 192.138 12.6659 192.138 14.3964V14.523C192.138 16.5309 190.661 17.6584 188.629 17.6584H179.012H175.695H174.176H172.831V28.9999H175.695V20.0461H179.012H186.977H187.923C190.088 20.0461 191.842 21.4148 191.842 23.9653V28.9999H194.706V24.4597C194.706 21.3002 193.302 19.5396 189.913 19.5396L189.895 18.4543C192.873 18.4543 195.002 16.6635 195.002 13.9683Z" fill="#FD203C"/>
  <path d="M68.7493 9H63.8774H54.001V29H63.8774H68.7493C74.2663 29 77.6549 24.5261 77.6549 19.003C77.6549 13.4799 74.2663 9 68.7493 9ZM68.2428 26.6123H63.8774H56.865V11.3877H63.8774H68.2428C72.8554 11.3877 74.8451 14.7944 74.8451 18.997C74.8451 23.1996 72.6685 26.6123 68.2428 26.6123Z" fill="white"/>
  <defs>
    <linearGradient id="paint0_linear" x1="33.2981" y1="17.5373" x2="3.44077" y2="24.8946" gradientUnits="userSpaceOnUse">
      <stop stop-color="#FE273B"/>
      <stop offset="0.502869" stop-color="#AD1A28"/>
      <stop offset="1" stop-color="#420D12"/>
    </linearGradient>
    <linearGradient id="paint1_linear" x1="10.3724" y1="20.0222" x2="30.4065" y2="7.81165" gradientUnits="userSpaceOnUse">
      <stop stop-color="#FE273B"/>
      <stop offset="1" stop-color="#520E15"/>
    </linearGradient>
    <linearGradient id="paint2_linear" x1="25.9555" y1="37.2909" x2="3.30865" y2="8.9824" gradientUnits="userSpaceOnUse">
      <stop stop-color="#FE273B"/>
      <stop offset="0.645833" stop-color="#FE273B"/>
      <stop offset="1" stop-color="#540F15"/>
    </linearGradient>
  </defs>
</svg>
