<svg width="489" height="136" viewBox="0 0 489 136" fill="none" xmlns="http://www.w3.org/2000/svg">
<path d="M54.5 1.73207C56.3564 0.660273 58.6435 0.660274 60.5 1.73207L104.296 27.018C106.153 28.0898 107.296 30.0705 107.296 32.2141V82.7859C107.296 84.9295 106.153 86.9103 104.296 87.9821L60.5 113.268C58.6435 114.34 56.3564 114.34 54.5 113.268L10.7035 87.9821C8.84708 86.9103 7.70349 84.9295 7.70349 82.7859V32.2141C7.70349 30.0705 8.84708 28.0898 10.7035 27.018L54.5 1.73207Z" fill="#E5E5E5"/>
<path d="M54 37.7321C55.8564 36.6603 58.1435 36.6603 60 37.7321L97.3012 59.268C99.1576 60.3398 100.301 62.3205 100.301 64.4641V107.536C100.301 109.68 99.1576 111.66 97.3012 112.732L60 134.268C58.1435 135.34 55.8564 135.34 54 134.268L16.6987 112.732C14.8423 111.66 13.6987 109.68 13.6987 107.536V64.4641C13.6987 62.3205 14.8423 60.3398 16.6987 59.268L54 37.7321Z" fill="#E5E5E5"/>
<path d="M54.5 1.73205C56.3564 0.660253 58.6436 0.660254 60.5 1.73205L104.296 27.018C106.153 28.0897 107.296 30.0705 107.296 32.2141V82.7859C107.296 84.9295 106.153 86.9103 104.296 87.982L60.5 113.268C58.6436 114.34 56.3564 114.34 54.5 113.268L10.7035 87.982C8.84713 86.9103 7.70354 84.9295 7.70354 82.7859V32.2141C7.70354 30.0705 8.84713 28.0897 10.7035 27.018L54.5 1.73205Z" fill="url(#paint0_linear_1682_2054)"/>
<path d="M54.5 1.73205C56.3564 0.660253 58.6436 0.660254 60.5 1.73205L104.296 27.018C106.153 28.0897 107.296 30.0705 107.296 32.2141V82.7859C107.296 84.9295 106.153 86.9103 104.296 87.982L60.5 113.268C58.6436 114.34 56.3564 114.34 54.5 113.268L10.7035 87.982C8.84713 86.9103 7.70354 84.9295 7.70354 82.7859V32.2141C7.70354 30.0705 8.84713 28.0897 10.7035 27.018L54.5 1.73205Z" fill="url(#paint1_linear_1682_2054)"/>
<g style="mix-blend-mode:hard-light">
<path d="M54 37.732C55.8564 36.6603 58.1436 36.6603 60 37.7321L97.3013 59.268C99.1577 60.3397 100.301 62.3205 100.301 64.4641V107.536C100.301 109.679 99.1577 111.66 97.3013 112.732L60 134.268C58.1436 135.34 55.8564 135.34 54 134.268L16.6987 112.732C14.8423 111.66 13.6987 109.679 13.6987 107.536V64.4641C13.6987 62.3205 14.8423 60.3397 16.6987 59.268L54 37.732Z" fill="url(#paint2_linear_1682_2054)"/>
</g>
<path d="M145.434 103V34.84H172.314C178.586 34.84 183.674 36.824 187.578 40.792C191.482 44.76 193.434 49.624 193.434 55.384C193.434 63.96 188.986 69.816 180.09 72.952L204.186 103H185.85L163.098 74.872H160.698V103H145.434ZM160.698 61.912H170.49C172.794 61.912 174.65 61.304 176.058 60.088C177.53 58.872 178.266 57.304 178.266 55.384C178.266 53.336 177.53 51.736 176.058 50.584C174.65 49.432 172.794 48.856 170.49 48.856H160.698V61.912ZM227.874 104.056C220.642 104.056 214.562 101.784 209.634 97.24C204.77 92.632 202.338 86.552 202.338 79C202.338 71.832 204.738 65.88 209.538 61.144C214.338 56.344 220.354 53.944 227.586 53.944C234.306 53.944 239.97 55.992 244.578 60.088C249.186 64.184 251.49 69.944 251.49 77.368C251.49 79.224 251.394 80.92 251.202 82.456H216.354C216.738 85.208 218.05 87.32 220.29 88.792C222.53 90.2 225.122 90.904 228.066 90.904C230.69 90.904 233.026 90.392 235.074 89.368C237.122 88.28 238.658 86.968 239.682 85.432L250.434 93.496C248.13 96.76 245.026 99.352 241.122 101.272C237.218 103.128 232.802 104.056 227.874 104.056ZM216.738 72.952H237.09C236.514 70.584 235.298 68.792 233.442 67.576C231.586 66.36 229.506 65.752 227.202 65.752C224.77 65.752 222.562 66.36 220.578 67.576C218.594 68.728 217.314 70.52 216.738 72.952ZM260.624 103V55H275.12V58.456C278.32 55.448 282.48 53.944 287.6 53.944C293.744 53.944 298.512 55.928 301.904 59.896C305.36 63.8 307.088 69.048 307.088 75.64V103H292.592V78.136C292.592 74.744 291.92 72.056 290.576 70.072C289.232 68.088 287.184 67.096 284.432 67.096C280.528 67.096 277.424 68.568 275.12 71.512V103H260.624ZM324.915 103V67.576H313.395V55H324.915V52.312C324.915 46.68 326.579 41.944 329.907 38.104C333.299 34.264 338.131 32.344 344.403 32.344C349.011 32.344 353.299 33.304 357.267 35.224L351.987 47.032C349.939 45.944 348.051 45.4 346.323 45.4C344.211 45.4 342.515 46.04 341.235 47.32C340.019 48.6 339.411 50.264 339.411 52.312V55H351.219V67.576H339.411V103H324.915ZM383.187 103.576C377.235 103.576 372.467 102.04 368.883 98.968C365.363 95.896 363.603 91.384 363.603 85.432V67.576H355.731V55H363.603V40.408H378.099V55H392.499V67.576H378.099V82.456C378.099 85.272 378.675 87.32 379.827 88.6C380.979 89.816 382.803 90.424 385.299 90.424C387.731 90.424 389.907 89.912 391.827 88.888L396.147 100.696C394.931 101.4 393.043 102.072 390.483 102.712C387.923 103.288 385.491 103.576 383.187 103.576ZM424.186 104.056C416.954 104.056 410.874 101.784 405.946 97.24C401.082 92.632 398.65 86.552 398.65 79C398.65 71.832 401.05 65.88 405.85 61.144C410.65 56.344 416.666 53.944 423.898 53.944C430.618 53.944 436.282 55.992 440.89 60.088C445.498 64.184 447.802 69.944 447.802 77.368C447.802 79.224 447.706 80.92 447.514 82.456H412.666C413.05 85.208 414.362 87.32 416.602 88.792C418.842 90.2 421.434 90.904 424.378 90.904C427.002 90.904 429.338 90.392 431.386 89.368C433.434 88.28 434.97 86.968 435.994 85.432L446.746 93.496C444.442 96.76 441.338 99.352 437.434 101.272C433.53 103.128 429.114 104.056 424.186 104.056ZM413.05 72.952H433.402C432.826 70.584 431.61 68.792 429.754 67.576C427.898 66.36 425.818 65.752 423.514 65.752C421.082 65.752 418.874 66.36 416.89 67.576C414.906 68.728 413.626 70.52 413.05 72.952ZM456.936 103V55H471.432V60.376C472.2 58.648 473.576 57.24 475.56 56.152C477.544 55 479.72 54.424 482.088 54.424C484.264 54.424 486.216 54.744 487.944 55.384L485.736 68.92C485.224 68.536 483.88 68.344 481.704 68.344C476.904 68.344 473.48 69.784 471.432 72.664V103H456.936Z" fill="white"/>
<defs>
<linearGradient id="paint0_linear_1682_2054" x1="0.000105407" y1="115" x2="114.845" y2="115" gradientUnits="userSpaceOnUse">
<stop stop-color="#BB0000"/>
<stop offset="1" stop-color="#0A617C"/>
</linearGradient>
<linearGradient id="paint1_linear_1682_2054" x1="13.8161" y1="115" x2="114.845" y2="115" gradientUnits="userSpaceOnUse">
<stop stop-color="#0E6A7E"/>
<stop offset="1" stop-color="#08C8F2"/>
</linearGradient>
<linearGradient id="paint2_linear_1682_2054" x1="7.00009" y1="136" x2="106.865" y2="136" gradientUnits="userSpaceOnUse">
<stop stop-color="#BB0000"/>
<stop offset="1" stop-color="#0A617C"/>
</linearGradient>
</defs>
</svg>
